<svg width="193" height="34" viewBox="0 0 193 34" fill="none" xmlns="http://www.w3.org/2000/svg">
<path d="M41.7357 32.8302C39.0409 32.7678 36.9073 30.5444 36.9701 27.8641C37.0329 25.1839 39.2683 23.0617 41.9631 23.1242C44.658 23.1867 46.7916 25.4101 46.7288 28.0903C46.666 30.7706 44.4305 32.8927 41.7357 32.8302Z" stroke="white" stroke-width="2" stroke-miterlimit="10"/>
<path d="M10.4374 32.8307C7.74187 32.8307 5.5567 30.6574 5.5567 27.9764C5.5567 25.2954 7.74187 23.1221 10.4374 23.1221C13.1329 23.1221 15.3181 25.2954 15.3181 27.9764C15.3181 30.6574 13.1329 32.8307 10.4374 32.8307Z" stroke="white" stroke-width="2" stroke-miterlimit="10"/>
<path d="M32.8409 27.8726C32.8437 26.7218 33.0748 25.5828 33.5211 24.5209C33.9674 23.4591 34.6201 22.4954 35.4417 21.685C38.9088 18.2508 44.5329 18.2508 48 21.685" stroke="white" stroke-width="2" stroke-miterlimit="10" stroke-linecap="round" stroke-linejoin="round"/>
<path d="M1.25796 27.8724C1.25796 23.0145 5.21708 19.0776 10.1013 19.0776C14.9856 19.0776 18.9438 23.0154 18.9438 27.8732" stroke="white" stroke-width="2" stroke-miterlimit="10" stroke-linecap="round" stroke-linejoin="round"/>
<path d="M20.2078 9.02637H3.78484V14.0527H20.2078V9.02637Z" stroke="white" stroke-width="2" stroke-miterlimit="10" stroke-linecap="round" stroke-linejoin="round"/>
<path d="M42.9473 19.078L35.3668 4H30.3132" stroke="white" stroke-width="2" stroke-miterlimit="10" stroke-linecap="round" stroke-linejoin="round"/>
<path d="M32.8408 27.9766H18.9438" stroke="white" stroke-width="2" stroke-miterlimit="10" stroke-linecap="round" stroke-linejoin="round"/>
<path d="M20.2079 14.0518C20.2079 14.0518 25.2615 32.8991 35.3669 14.0518" stroke="white" stroke-width="2" stroke-miterlimit="10" stroke-linecap="round" stroke-linejoin="round"/>
<path d="M3.78467 14.0518C3.78467 14.0518 -0.0059909 20.3342 1.25786 27.8728" stroke="white" stroke-width="2" stroke-miterlimit="10" stroke-linecap="round" stroke-linejoin="round"/>
</svg>
